<svg xmlns="http://www.w3.org/2000/svg" viewBox="0 0 64 64" width="64" height="64">
  <defs>
    <linearGradient id="bg" x1="0" y1="0" x2="1" y2="1">
      <stop offset="0%" stop-color="#1a1a2e"/>
      <stop offset="100%" stop-color="#16213e"/>
    </linearGradient>
  </defs>
  <rect width="64" height="64" rx="14" fill="url(#bg)"/>
  <!-- Bell -->
  <path d="M32 14c-6 0-10 4-10 10v4c-2 2-3 4-3 6l2 2h22l2-2c0-2-1-4-3-6v-4c0-6-4-10-10-10z" fill="#e94560" stroke="#e94560" stroke-width="1.5"/>
  <rect x="28" y="14" width="8" height="4" rx="2" fill="#ff6b81"/>
  <!-- Bell clapper -->
  <circle cx="32" cy="40" r="2.5" fill="#e94560"/>
  <rect x="30.5" y="36" width="3" height="2" rx="1" fill="#e94560"/>
  <!-- Sound waves -->
  <path d="M44 20c2 3 3 7 3 11" fill="none" stroke="#16c79a" stroke-width="2" stroke-linecap="round" opacity="0.8"/>
  <path d="M47 17c3 4 4 9 4 14" fill="none" stroke="#16c79a" stroke-width="1.5" stroke-linecap="round" opacity="0.5"/>
  <!-- Checkmark -->
  <path d="M22 34l3 3 6-6" fill="none" stroke="#16c79a" stroke-width="2.5" stroke-linecap="round" stroke-linejoin="round"/>
</svg>
